<?xml version="1.0" encoding="utf-8"?>
<!-- Generator: Adobe Illustrator 17.1.0, SVG Export Plug-In . SVG Version: 6.00 Build 0)  -->
<!DOCTYPE svg PUBLIC "-//W3C//DTD SVG 1.1//EN" "http://www.w3.org/Graphics/SVG/1.1/DTD/svg11.dtd">
<svg version="1.1" xmlns="http://www.w3.org/2000/svg" xmlns:xlink="http://www.w3.org/1999/xlink" x="0px" y="0px"
	 width="510.2px" height="111px" viewBox="0 0 510.2 111" enable-background="new 0 0 510.2 111" xml:space="preserve">
<g>
	<path fill="#FFFFFF" d="M0,18.1C0,8.2,8.1,0,18.1,0h62c9.8,0,17.9,8.2,17.9,18.1c0,10-8.1,18.1-17.9,18.1h-62C8.1,36.1,0,28,0,18.1
		z M30,92V41.7h37.8V92c0,10.6-8.6,19-19,19C38.4,111,30,102.6,30,92z"/>
	<path fill="#FFFFFF" d="M123.1,111c-10.4,0-18.8-8.4-18.8-19V19c0-10.4,8.4-19,18.8-19c10.4,0,19,8.6,19,19v73
		C142.1,102.6,133.6,111,123.1,111z M183.7,111c-10.4,0-18.8-8.4-18.8-19V73.2h-17.1V37.8h17.1V19c0-10.4,8.4-19,18.8-19
		c10.6,0,19,8.6,19,19v73C202.7,102.6,194.3,111,183.7,111z"/>
	<path fill="#FFFFFF" d="M214.6,92V19c0-10.4,8.4-19,18.8-19c10.4,0,19,8.6,19,19v73c0,10.6-8.6,19-19,19
		C223.1,111,214.6,102.6,214.6,92z"/>
	<path fill="#FFFFFF" d="M336.8,44.1c-7.9,0-13.1-6.4-21-6.4c-9.8,0-17.7,7.9-17.7,17.7c0,3.7,1.2,7.6,3.6,10.6l-26.8,26.9
		c-9.2-10.3-14.5-23.7-14.5-37.5c0-30.7,24.8-55.4,55.4-55.4c10.7,0,22.7,3.6,31.6,9.7c5,3.4,8.2,9.5,8.2,15.6
		C355.7,35.5,347.1,44.1,336.8,44.1z M347.4,101.3c-9.2,6.4-20.2,9.7-31.4,9.7c-13.9,0-26.9-5.1-37.2-14.3l26.8-26.8
		c3,2.3,6.7,3.6,10.4,3.6c7.6,0,12.5-6.7,20.9-6.7c10.3,0,18.8,8.6,18.8,18.8C355.7,91.8,352.6,97.7,347.4,101.3z"/>
	<path fill="#FFFFFF" d="M383.7,111c-10.4,0-18.8-8.6-18.8-19V19c0-10.4,8.4-19,18.8-19c10.4,0,19,8.6,19,19v73
		C402.7,102.4,394.1,111,383.7,111z M449.5,111c-4.8,0-9.5-1.9-13.4-5.6l-27.9-27.7V33.5l27.9-27.9c3.7-3.7,8.6-5.6,13.4-5.6
		c10.1,0,19,8.7,19,19c0,5-1.9,9.7-5.6,13.4l-23.2,23l23.2,23.2c3.7,3.7,5.6,8.6,5.6,13.4C468.5,102.3,459.6,111,449.5,111z"/>
	<path fill="#FFFFFF" d="M472.3,92c0-10.4,8.6-19,19-19c10.4,0,19,8.6,19,19c0,10.4-8.6,19-19,19C480.8,111,472.3,102.4,472.3,92z"
		/>
</g>
</svg>
